<?xml version="1.0" standalone="no"?>
<!DOCTYPE svg PUBLIC "-//W3C//DTD SVG 20010904//EN"
 "http://www.w3.org/TR/2001/REC-SVG-20010904/DTD/svg10.dtd">
<svg version="1.0" xmlns="http://www.w3.org/2000/svg"
 width="312.000000pt" height="312.000000pt" viewBox="0 0 312.000000 312.000000"
 preserveAspectRatio="xMidYMid meet">
<metadata>
Created by potrace 1.14, written by Peter Selinger 2001-2017
</metadata>
<g transform="translate(0.000000,312.000000) scale(0.100000,-0.100000)"
fill="#000000" stroke="none">
<path d="M1113 2375 c-241 -179 -588 -436 -771 -571 -182 -135 -332 -247 -332
-249 0 -3 394 -296 610 -455 49 -36 275 -203 504 -372 228 -170 421 -310 429
-314 9 -3 134 84 323 224 170 126 315 227 322 224 8 -3 9 -8 3 -16 -6 -7 -10
-34 -9 -60 l1 -47 41 3 c26 2 40 7 38 16 -1 6 2 12 6 12 4 0 8 -50 7 -111 -1
-91 2 -112 15 -118 25 -12 139 -5 157 10 11 10 14 10 9 2 -5 -9 -1 -13 11 -14
49 -3 83 -1 98 5 14 5 14 8 0 36 -19 37 -31 38 -69 3 -20 -18 -17 -12 8 14 36
38 38 44 33 90 -2 26 -2 40 0 30 6 -22 30 -22 41 0 10 22 8 181 -3 205 -8 20
-55 25 -55 6 0 -10 -3 -9 -9 1 -7 10 -13 11 -30 2 -11 -7 -21 -17 -21 -24 -1
-7 -5 -6 -13 4 -12 16 -100 32 -91 17 10 -16 -17 -18 -40 -3 -14 9 -30 14 -36
10 -5 -3 -10 -4 -10 -1 0 2 51 42 113 87 61 46 207 153 322 239 116 86 252
186 303 224 50 38 92 70 92 71 0 3 -351 264 -584 436 -57 41 -197 145 -312
230 -570 424 -645 479 -653 479 -5 0 -207 -146 -448 -325z m650 93 c105 -79
197 -146 202 -151 6 -4 102 -76 215 -160 113 -84 291 -215 395 -293 105 -77
241 -178 303 -223 61 -46 112 -84 112 -85 0 -3 -270 -204 -720 -537 -63 -47
-246 -183 -407 -302 -161 -119 -297 -217 -303 -217 -5 0 -81 53 -167 117 -87
64 -237 175 -333 247 -96 71 -260 193 -365 269 -104 77 -194 144 -200 149 -39
31 -88 67 -217 162 -82 59 -148 109 -148 111 0 2 57 45 128 96 70 51 129 96
132 99 3 3 21 17 40 30 19 14 42 30 50 37 21 17 288 214 330 243 19 14 42 31
51 38 58 50 686 511 697 511 6 1 99 -63 205 -141z m795 -1649 c24 -2 24 -2 5
-6 -18 -3 -23 -12 -24 -36 l-1 -32 -7 30 -6 30 -115 6 c-63 3 -100 6 -82 7 17
1 32 6 32 11 0 5 14 4 31 -2 26 -10 32 -9 44 6 11 15 13 16 19 2 3 -9 18 -15
36 -15 29 0 30 2 32 48 l2 47 3 -47 c4 -44 6 -48 31 -49z m-272 20 c0 -27 -2
-52 -6 -54 -4 -2 -6 7 -4 21 1 15 -4 28 -12 31 -13 5 -13 8 2 24 9 10 13 23 8
31 -4 7 -3 9 2 5 4 -4 9 -31 10 -58z m83 21 c0 -10 -3 -8 -9 5 -12 27 -12 43
0 25 5 -8 9 -22 9 -30z m88 8 c-3 -8 -6 -5 -6 6 -1 11 2 17 5 13 3 -3 4 -12 1
-19z m-102 -108 c-3 -5 -11 -10 -16 -10 -6 0 -7 5 -4 10 3 6 11 10 16 10 6 0
7 -4 4 -10z m58 3 c-7 -2 -21 -2 -30 0 -10 3 -4 5 12 5 17 0 24 -2 18 -5z m63
-60 c0 -52 -1 -59 -12 -45 -8 11 -9 21 -3 27 5 5 9 24 9 41 0 26 -5 34 -22 37
-20 5 -20 5 2 4 24 -2 25 -5 26 -64z m-113 -21 l22 -11 -22 0 c-20 -1 -23 -6
-23 -41 l0 -40 64 0 c53 0 65 3 69 18 3 13 4 12 3 -3 -1 -17 -9 -20 -61 -23
-42 -2 -64 -8 -72 -19 -11 -14 -13 1 -12 83 1 54 4 87 6 73 2 -15 14 -31 26
-37z m77 -8 c0 -2 -12 -4 -26 -4 -14 0 -23 4 -20 9 6 8 46 4 46 -5z"/>
<path d="M1263 2367 c-1067 -789 -1096 -811 -1075 -827 11 -8 104 -78 208
-155 104 -76 275 -203 379 -280 105 -78 321 -239 482 -357 l291 -216 44 31
c37 27 353 261 428 317 42 32 433 321 678 502 128 95 231 177 229 183 -2 5
-32 32 -68 58 -35 26 -71 53 -79 60 -8 7 -100 75 -205 152 -104 76 -192 142
-195 145 -3 4 -27 22 -55 40 -27 19 -56 40 -65 47 -18 14 -148 112 -463 344
-125 93 -232 169 -237 169 -5 0 -138 -96 -297 -213z m460 43 c89 -66 214 -159
277 -205 63 -47 185 -136 270 -200 85 -63 257 -190 381 -282 l227 -168 -142
-105 c-78 -58 -218 -162 -311 -231 -94 -69 -269 -199 -390 -289 -202 -150
-360 -267 -443 -327 l-32 -24 -659 488 -658 488 81 60 c45 33 263 195 486 360
223 165 481 357 575 427 93 70 171 128 173 128 2 0 76 -54 165 -120z"/>
<path d="M1223 2112 c-177 -130 -322 -240 -322 -244 -1 -3 73 -61 164 -128
161 -118 166 -122 189 -107 18 12 431 316 566 417 14 11 34 26 45 34 14 10 17
18 9 25 -16 17 -318 241 -324 241 -3 0 -150 -107 -327 -238z"/>
<path d="M1805 1941 c-88 -66 -161 -123 -162 -128 -2 -7 600 -458 637 -476 13
-7 50 16 156 94 76 56 151 112 166 124 l27 22 -322 239 c-176 132 -326 240
-332 241 -5 2 -82 -51 -170 -116z"/>
<path d="M676 1680 c-88 -66 -163 -123 -168 -128 -6 -6 118 -103 309 -244 175
-129 324 -238 331 -242 10 -6 105 55 187 121 6 5 26 20 45 33 35 25 50 37 97
75 l25 21 -322 238 c-178 131 -328 239 -334 241 -6 2 -83 -50 -170 -115z"/>
<path d="M1704 1362 c-109 -81 -256 -190 -326 -242 -71 -52 -128 -97 -128
-100 0 -11 321 -245 334 -244 10 1 231 157 246 174 3 3 30 23 60 45 99 71 325
238 339 251 11 10 -14 33 -145 130 -88 64 -164 121 -170 125 -7 6 -87 -48
-210 -139z"/>
<path d="M2190 675 c0 -37 4 -55 13 -55 8 0 7 -3 -3 -10 -35 -22 24 -88 66
-73 15 5 8 84 -7 94 -8 5 -8 8 0 10 13 5 22 56 14 77 -3 7 -22 12 -44 12 l-39
0 0 -55z"/>
<path d="M2572 662 c-7 -20 -6 -37 4 -60 7 -18 15 -32 16 -32 2 0 4 27 4 60 0
65 -8 76 -24 32z"/>
</g>
</svg>
